<svg xmlns="http://www.w3.org/2000/svg" viewBox="0 0 24 24">
    <g id = "fb">
        <path d=" M 22.676 0 L 1.324 0 C 0.593 0 0 0.593 0 1.324 L 0 22.676 C 0 23.408 0.593 24 1.324 24 L 12.818 24 L 12.818 14.706 L 9.689 14.706 L 9.689 11.085 L 12.818 11.085 L 12.818 8.41 C 12.818 5.311 14.712 3.625 17.477 3.625 C 18.802 3.625 19.941 3.722 20.273 3.766 L 20.273 7.006 L 18.352 7.006 C 16.852 7.006 16.56 7.727 16.56 8.777 L 16.56 11.088 L 20.144 11.088 L 19.679 14.718 L 16.56 14.718 L 16.56 24 L 22.675 24 C 23.408 24 24 23.408 24 22.676 L 24 1.324 C 24 0.593 23.408 0 22.676 0 Z "/>
    </g>
    <g id = "gmail">
        <path d=" M 24 4.5 L 24 19.5 C 24 20.35 23.35 21 22.5 21 L 21 21 L 21 7.387 L 12 13.85 L 3 7.387 L 3 21 L 1.5 21 C 0.649 21 0 20.35 0 19.5 L 0 4.5 C 0 4.075 0.162 3.7 0.431 3.432 C 0.7 3.16 1.076 3 1.5 3 L 2 3 L 12 10.25 L 22 3 L 22.5 3 C 22.925 3 23.3 3.162 23.569 3.432 C 23.839 3.7 24 4.075 24 4.5 Z " />
    </g>
    <g id = "insta">
        <path d=" M 12 0 C 8.74 0 8.333 0.015 7.053 0.072 C 5.775 0.132 4.905 0.333 4.14 0.63 C 3.351 0.936 2.681 1.347 2.014 2.014 C 1.347 2.681 0.935 3.35 0.63 4.14 C 0.333 4.905 0.131 5.775 0.072 7.053 C 0.012 8.333 0 8.74 0 12 C 0 15.26 0.015 15.667 0.072 16.947 C 0.132 18.224 0.333 19.095 0.63 19.86 C 0.936 20.648 1.347 21.319 2.014 21.986 C 2.681 22.652 3.35 23.065 4.14 23.37 C 4.906 23.666 5.776 23.869 7.053 23.928 C 8.333 23.988 8.74 24 12 24 C 15.26 24 15.667 23.985 16.947 23.928 C 18.224 23.868 19.095 23.666 19.86 23.37 C 20.648 23.064 21.319 22.652 21.986 21.986 C 22.652 21.319 23.065 20.651 23.37 19.86 C 23.666 19.095 23.869 18.224 23.928 16.947 C 23.988 15.667 24 15.26 24 12 C 24 8.74 23.985 8.333 23.928 7.053 C 23.868 5.776 23.666 4.904 23.37 4.14 C 23.064 3.351 22.652 2.681 21.986 2.014 C 21.319 1.347 20.651 0.935 19.86 0.63 C 19.095 0.333 18.224 0.131 16.947 0.072 C 15.667 0.012 15.26 0 12 0 Z  M 12 2.16 C 15.203 2.16 15.585 2.176 16.85 2.231 C 18.02 2.286 18.655 2.48 19.077 2.646 C 19.639 2.863 20.037 3.123 20.459 3.542 C 20.878 3.962 21.138 4.361 21.355 4.923 C 21.519 5.345 21.715 5.98 21.768 7.15 C 21.825 8.416 21.838 8.796 21.838 12 C 21.838 15.204 21.823 15.585 21.764 16.85 C 21.703 18.02 21.508 18.655 21.343 19.077 C 21.119 19.639 20.864 20.037 20.444 20.459 C 20.025 20.878 19.62 21.138 19.064 21.355 C 18.644 21.519 17.999 21.715 16.829 21.768 C 15.555 21.825 15.18 21.838 11.97 21.838 C 8.759 21.838 8.384 21.823 7.111 21.764 C 5.94 21.703 5.295 21.508 4.875 21.343 C 4.306 21.119 3.915 20.864 3.496 20.444 C 3.075 20.025 2.806 19.62 2.596 19.064 C 2.431 18.644 2.237 17.999 2.176 16.829 C 2.131 15.569 2.115 15.18 2.115 11.985 C 2.115 8.789 2.131 8.399 2.176 7.124 C 2.237 5.954 2.431 5.31 2.596 4.89 C 2.806 4.32 3.075 3.93 3.496 3.509 C 3.915 3.09 4.306 2.82 4.875 2.611 C 5.295 2.445 5.926 2.25 7.096 2.19 C 8.371 2.145 8.746 2.13 11.955 2.13 L 12 2.16 L 12 2.16 L 12 2.16 L 12 2.16 Z  M 12 5.838 C 8.595 5.838 5.838 8.598 5.838 12 C 5.838 15.405 8.598 18.162 12 18.162 C 15.405 18.162 18.162 15.402 18.162 12 C 18.162 8.595 15.402 5.838 12 5.838 Z  M 12 16 C 9.79 16 8 14.21 8 12 C 8 9.79 9.79 8 12 8 C 14.21 8 16 9.79 16 12 C 16 14.21 14.21 16 12 16 Z  M 19.846 5.595 C 19.846 6.39 19.2 7.035 18.406 7.035 C 17.611 7.035 16.966 6.389 16.966 5.595 C 16.966 4.801 17.612 4.156 18.406 4.156 C 19.199 4.155 19.846 4.801 19.846 5.595 Z " />
    </g>
    <g id = "stackov">
        <path d=" M 18.986 21.865 L 18.986 15.461 L 21.12 15.461 L 21.12 24 L 1.844 24 L 1.844 15.461 L 3.974 15.461 L 3.974 21.865 L 18.986 21.865 L 18.986 21.865 L 18.986 21.865 Z  M 6.111 19.731 L 16.85 19.731 L 16.85 17.594 L 6.111 17.594 L 6.111 19.731 L 6.111 19.731 L 6.111 19.731 Z  M 6.37 14.879 L 16.85 17.068 L 17.301 14.998 L 6.823 12.811 L 6.37 14.879 L 6.37 14.879 L 6.37 14.879 Z  M 7.729 9.823 L 17.434 14.353 L 18.337 12.403 L 8.631 7.873 L 7.729 9.809 L 7.729 9.823 L 7.729 9.823 L 7.729 9.823 Z  M 10.444 5.038 L 18.661 11.893 L 20.02 10.273 L 11.804 3.42 L 10.454 5.037 L 10.444 5.038 L 10.444 5.038 L 10.444 5.038 Z  M 15.751 0 L 14.005 1.294 L 20.41 9.898 L 22.156 8.604 L 15.749 0 L 15.751 0 L 15.751 0 L 15.751 0 Z " />
    </g>
    <g id = "steam">
        <path d=" M 11.979 0 C 5.678 0 0.511 4.86 0.022 11.037 L 6.454 13.695 C 6.999 13.324 7.657 13.105 8.366 13.105 C 8.429 13.105 8.491 13.109 8.554 13.111 L 11.415 8.969 L 11.415 8.91 C 11.415 6.415 13.443 4.386 15.939 4.386 C 18.433 4.386 20.463 6.417 20.463 8.913 C 20.463 11.409 18.433 13.438 15.939 13.438 L 15.834 13.438 L 11.758 16.349 C 11.758 16.401 11.762 16.454 11.762 16.508 C 11.762 18.383 10.247 19.904 8.372 19.904 C 6.737 19.904 5.356 18.731 5.041 17.177 L 0.436 15.27 C 1.862 20.307 6.486 24 11.979 24 C 18.606 24 23.978 18.627 23.978 12 C 23.978 5.373 18.605 0 11.979 0 Z  M 7.54 18.21 L 6.067 17.6 C 6.329 18.143 6.781 18.599 7.381 18.85 C 8.678 19.389 10.174 18.774 10.713 17.475 C 10.976 16.845 10.977 16.156 10.718 15.526 C 10.459 14.896 9.968 14.405 9.341 14.143 C 8.717 13.883 8.051 13.894 7.463 14.113 L 8.986 14.743 C 9.942 15.143 10.395 16.243 9.995 17.198 C 9.598 18.155 8.498 18.608 7.541 18.21 L 7.54 18.21 L 7.54 18.21 L 7.54 18.21 Z  M 18.955 8.907 C 18.955 7.245 17.602 5.892 15.94 5.892 C 14.275 5.892 12.925 7.245 12.925 8.907 C 12.925 10.572 14.275 11.922 15.94 11.922 C 17.603 11.922 18.955 10.572 18.955 8.907 Z  M 13.682 8.902 C 13.682 7.65 14.695 6.636 15.947 6.636 C 17.196 6.636 18.213 7.65 18.213 8.902 C 18.213 10.153 17.196 11.167 15.947 11.167 C 14.694 11.167 13.682 10.153 13.682 8.902 Z " />
    </g>
    <g id = "telegram">
        <path d=" M 9.403 15.213 L 18.293 21.781 C 19.308 22.341 20.041 22.052 20.293 20.839 L 23.913 3.786 C 24.285 2.299 23.349 1.627 22.379 2.066 L 1.125 10.263" />
    </g>
    <g id = "twitch">
        <path d=" M 2.089 0 L 0.525 4.175 L 0.525 20.869 L 6.261 20.869 L 6.261 24 L 9.393 24 L 12.52 20.868 L 17.215 20.868 L 23.475 14.61 L 23.475 0 L 2.089 0 L 2.089 0 L 2.089 0 Z  M 4.175 2.085 L 21.39 2.085 L 21.39 13.564 L 17.738 17.216 L 12 17.216 L 8.873 20.343 L 8.873 17.216 L 4.175 17.216 L 4.175 2.085 L 4.175 2.085 L 4.175 2.085 Z " />
        <path d=" M 9.915 12.522 L 12 12.522 L 12 6.262 L 9.915 6.262 L 9.915 12.522 L 9.915 12.522 L 9.915 12.522 Z  M 15.65 12.522 L 17.736 12.522 L 17.736 6.262 L 15.65 6.262 L 15.65 12.522 L 15.65 12.522 L 15.65 12.522 Z " />
    </g>
    <g id = "twit">
        <path d=" M 23.954 4.569 C 23.069 4.958 22.124 5.223 21.129 5.344 C 22.143 4.733 22.923 3.77 23.292 2.621 C 22.341 3.176 21.287 3.58 20.165 3.805 C 19.269 2.846 17.992 2.246 16.574 2.246 C 13.857 2.246 11.654 4.449 11.654 7.163 C 11.654 7.553 11.699 7.928 11.781 8.287 C 7.691 8.094 4.066 6.13 1.64 3.161 C 1.213 3.883 0.974 4.722 0.974 5.636 C 0.974 7.346 1.844 8.849 3.162 9.732 C 2.355 9.706 1.596 9.484 0.934 9.116 L 0.934 9.177 C 0.934 11.562 2.627 13.551 4.88 14.004 C 4.467 14.115 4.031 14.175 3.584 14.175 C 3.27 14.175 2.969 14.145 2.668 14.089 C 3.299 16.042 5.113 17.466 7.272 17.506 C 5.592 18.825 3.463 19.611 1.17 19.611 C 0.78 19.611 0.391 19.588 0 19.544 C 2.189 20.938 4.768 21.753 7.557 21.753 C 16.611 21.753 21.556 14.257 21.556 7.767 C 21.556 7.558 21.556 7.347 21.541 7.137 C 22.502 6.448 23.341 5.577 24.001 4.589 L 23.954 4.569 L 23.954 4.569 L 23.954 4.569 Z " />
    </g>    
</svg>
