<?xml version="1.0" standalone="no"?><!-- Generator: Gravit.io --><svg xmlns="http://www.w3.org/2000/svg" xmlns:xlink="http://www.w3.org/1999/xlink" style="isolation:isolate" viewBox="0 0 128 128" width="128" height="128"><path d=" M 0 0 L 0 128 L 128 128 L 128 0 L 0 0 L 0 0 Z " fill="rgb(66,66,66)"/><path d=" M 90 68 L 96 68 L 93 85 L 87 85 L 90 68 L 90 68 Z  M 38 68 L 32 68 L 35 85 L 40 85 L 38 68 L 38 68 Z " fill="rgb(255,138,101)"/><path d=" M 94 73 L 91 94 L 77 115 L 64 120 L 64 29 L 89 29 L 94 73 L 94 73 Z  M 34 73 L 37 94 L 51 115 L 64 120 L 64 29 L 39 29 L 34 73 L 34 73 Z " fill="rgb(255,204,188)"/><path d=" M 46 71.5 C 46 69.7 47.8 68 49.5 68 C 51.3 68 53 69.8 53 71.5 C 53 73.3 51.2 75 49.5 75 C 47.629 74.857 46.143 73.371 46 71.5 L 46 71.5 Z  M 75 71.5 C 75 69.7 76.8 68 78.5 68 C 80.3 68 82 69.8 82 71.5 C 82 73.3 80.2 75 78.5 75 C 76.629 74.857 75.143 73.371 75 71.5 L 75 71.5 Z " fill="rgb(33,33,33)"/><path d=" M 64 67 L 56 88 L 72 88 L 64 67 L 64 67 Z " fill="rgb(255,171,145)"/><path d=" M 72 88 L 56 88 L 64 91 L 72 88 L 72 88 Z " fill="rgb(255,138,101)"/><path d=" M 53 103 L 60 100 L 64 101 L 68 100 L 75 103 L 53 103 L 53 103 Z " fill="rgb(255,171,145)"/><path d=" M 53 103 L 75 103 L 68 107 L 60 107 L 53 103 L 53 103 Z " fill="rgb(255,138,101)"/><path d=" M 38 63 L 44 60 L 60 63 L 58 67 L 44 63 L 38 63 L 38 63 Z  M 69 63 L 71 67 L 86 63 L 89 63 L 86 60 L 69 63 L 69 63 Z " fill="rgb(0,0,0)"/><path d=" M 64 38 L 64 120 L 51 115 L 37 94 L 34 73 L 34 48 L 48 30 L 64 38 L 64 38 Z " fill="rgb(0,0,0)" fill-opacity="0.2"/><path d=" M 34 73 L 38 63 L 35 64 L 38 60 L 35 61 L 40 56 L 37 57 L 41 52 L 38 53 L 41 48 L 38 50 L 42 44 L 38 45 L 53 36 L 89 43 L 84 43 L 89 46 L 84 46 L 90 50 L 86 50 L 90 55 L 86 54 L 91 59 L 88 59 L 94 73 L 96 50 L 90 29 L 93 19 L 87 24 L 91 10 L 84 15 L 86 3 L 77 12 L 79 3 L 72 10 L 70 10 L 72 3 L 63 10 L 65 3 L 56 10 L 58 3 L 38 26 L 31 50 L 34 73 L 34 73 Z " fill="rgb(33,33,33)"/><path d=" M 64 96 L 62 93 L 54 96 L 49 100 L 64 96 L 64 96 Z " fill="rgb(0,0,0)"/><path d=" M 64 96 L 66 93 L 74 96 L 79 100 L 64 96 L 64 96 Z " fill="rgb(33,33,33)"/><g id="g32"><path d=" M 34 73 L 41 94 L 52 114 L 64 115 L 76 114 L 87 94 L 94 73 L 91 94 L 77 115 L 64 120 L 51 115 L 37 94 L 34 73 L 34 73 Z " fill="rgb(33,33,33)"/><path d=" M 60 109 L 68 109 L 64 113 L 60 109 L 60 109 Z " fill="rgb(33,33,33)"/></g><path d=" M 34 73 L 38 63 L 35 64 L 38 60 L 36 61 L 40 56 L 37 57 L 41 52 L 38 53 L 41 48 L 38 50 L 42 44 L 38 45 L 53 36 L 64 38 L 69 26 L 64 29 L 69 19 L 65 21 L 70 14 L 67 15 L 70 10 L 72 3 L 63 10 L 65 3 L 56 10 L 58 3 L 38 26 L 31 50 L 34 73 L 34 73 Z  M 34 73 L 37 95 L 51 115 L 64 120 L 64 115 L 52 114 L 41 94 L 34 73 L 34 73 Z  M 64 113 L 64 109 L 60 109 L 64 113 L 64 113 Z " fill="rgb(0,0,0)"/><path d=" M 81 12 L 81 22 L 87 17 L 83 30 L 89 26 L 80 40 L 81 29 L 73 37 L 77 27 L 68 33 L 81 12 L 81 12 Z " fill="rgb(66,66,66)"/></svg>