<svg xmlns="http://www.w3.org/2000/svg" viewBox="0 0 16 16">
    <g id = "logo">
        <path d="M 15 8.6 L 1 8.6 C 0.7 8.6 0.4 8.3 0.4 8 C 0.4 7.7 0.7 7.4 1 7.4 L 15 7.4 C 15.3 7.4 15.6 7.7 15.6 8 C 15.6 8.3 15.3 8.6 15 8.6 Z "/>
        <path d="M 8.4 7.6 L 13.4 12.6 C 13.7 12.8 13.7 13.2 13.4 13.4 C 13.2 13.7 12.8 13.7 12.6 13.4 L 7.6 8.4 C 7.3 8.2 8.2 7.3 8.4 7.6 Z "/>
        <path d="M 9.5 15.859 C 13.199 15.156 16 11.903 16 8 C 16 3.585 12.415 0 8 0 C 3.585 0 0 3.585 0 8 L 0 8 C 0 11.903 2.801 15.156 6.5 15.859 L 6.5 14.883 C 6.5 14.746 6.391 14.609 6.256 14.578 C 5.268 14.355 4.131 13.731 3.2 12.8 C 1.9 11.5 1.2 9.8 1.2 8 L 1.2 8 C 1.2 6.2 1.9 4.5 3.2 3.2 C 4.5 1.9 6.2 1.2 8 1.2 C 9.8 1.2 11.5 1.9 12.8 3.2 C 14.1 4.5 14.8 6.2 14.8 8 C 14.8 9.8 14.1 11.5 12.8 12.8 C 11.869 13.731 10.732 14.355 9.744 14.578 C 9.609 14.609 9.5 14.746 9.5 14.883 L 9.5 15.859 Z "/>
    </g>
</svg>