<?xml version="1.0" standalone="no"?><!-- Generator: Gravit.io --><svg xmlns="http://www.w3.org/2000/svg" xmlns:xlink="http://www.w3.org/1999/xlink" style="isolation:isolate" viewBox="0 0 24 24" width="24" height="24"><path d=" M 12 0 C 5.4 0 0 5.4 0 12 C 0 18.6 5.4 24 12 24 C 18.6 24 24 18.6 24 12 C 24 5.4 18.66 0 12 0 Z  M 17.521 17.34 C 17.281 17.699 16.861 17.82 16.5 17.58 C 13.68 15.84 10.14 15.479 5.939 16.439 C 5.521 16.561 5.16 16.26 5.04 15.9 C 4.92 15.479 5.22 15.12 5.58 15 C 10.14 13.979 14.1 14.4 17.22 16.32 C 17.64 16.5 17.699 16.979 17.521 17.34 Z  M 18.961 14.04 C 18.66 14.46 18.12 14.64 17.699 14.34 C 14.46 12.36 9.54 11.76 5.76 12.96 C 5.281 13.08 4.74 12.84 4.62 12.36 C 4.5 11.88 4.74 11.339 5.22 11.219 C 9.6 9.9 15 10.561 18.72 12.84 C 19.081 13.021 19.26 13.62 18.961 14.04 Z  M 19.081 10.68 C 15.24 8.4 8.82 8.16 5.16 9.301 C 4.56 9.48 3.96 9.12 3.78 8.58 C 3.6 7.979 3.96 7.38 4.5 7.199 C 8.76 5.939 15.78 6.179 20.221 8.82 C 20.76 9.12 20.94 9.84 20.64 10.38 C 20.341 10.801 19.62 10.979 19.081 10.68 Z " fill="rgb(27,94,32)"/></svg>