<?xml version="1.0" standalone="no"?><!-- Generator: Gravit.io --><svg xmlns="http://www.w3.org/2000/svg" xmlns:xlink="http://www.w3.org/1999/xlink" style="isolation:isolate" viewBox="0 0 24 24" width="24" height="24"><path d=" M 11.979 0 C 5.678 0 0.511 4.86 0.022 11.037 L 6.454 13.695 C 6.999 13.324 7.657 13.105 8.366 13.105 C 8.429 13.105 8.491 13.109 8.554 13.111 L 11.415 8.969 L 11.415 8.91 C 11.415 6.415 13.443 4.386 15.939 4.386 C 18.433 4.386 20.463 6.417 20.463 8.913 C 20.463 11.409 18.433 13.438 15.939 13.438 L 15.834 13.438 L 11.758 16.349 C 11.758 16.401 11.762 16.454 11.762 16.508 C 11.762 18.383 10.247 19.904 8.372 19.904 C 6.737 19.904 5.356 18.731 5.041 17.177 L 0.436 15.27 C 1.862 20.307 6.486 24 11.979 24 C 18.606 24 23.978 18.627 23.978 12 C 23.978 5.373 18.605 0 11.979 0 Z  M 7.54 18.21 L 6.067 17.6 C 6.329 18.143 6.781 18.599 7.381 18.85 C 8.678 19.389 10.174 18.774 10.713 17.475 C 10.976 16.845 10.977 16.156 10.718 15.526 C 10.459 14.896 9.968 14.405 9.341 14.143 C 8.717 13.883 8.051 13.894 7.463 14.113 L 8.986 14.743 C 9.942 15.143 10.395 16.243 9.995 17.198 C 9.598 18.155 8.498 18.608 7.541 18.21 L 7.54 18.21 L 7.54 18.21 L 7.54 18.21 Z  M 18.955 8.907 C 18.955 7.245 17.602 5.892 15.94 5.892 C 14.275 5.892 12.925 7.245 12.925 8.907 C 12.925 10.572 14.275 11.922 15.94 11.922 C 17.603 11.922 18.955 10.572 18.955 8.907 Z  M 13.682 8.902 C 13.682 7.65 14.695 6.636 15.947 6.636 C 17.196 6.636 18.213 7.65 18.213 8.902 C 18.213 10.153 17.196 11.167 15.947 11.167 C 14.694 11.167 13.682 10.153 13.682 8.902 Z " fill="rgb(27,94,32)"/></svg>