<?xml version="1.0" standalone="no"?><!-- Generator: Gravit.io --><svg xmlns="http://www.w3.org/2000/svg" xmlns:xlink="http://www.w3.org/1999/xlink" style="isolation:isolate" viewBox="0 0 24.001 24" width="24.001" height="24"><path d=" M 23.954 4.569 C 23.069 4.958 22.124 5.223 21.129 5.344 C 22.143 4.733 22.923 3.77 23.292 2.621 C 22.341 3.176 21.287 3.58 20.165 3.805 C 19.269 2.846 17.992 2.246 16.574 2.246 C 13.857 2.246 11.654 4.449 11.654 7.163 C 11.654 7.553 11.699 7.928 11.781 8.287 C 7.691 8.094 4.066 6.13 1.64 3.161 C 1.213 3.883 0.974 4.722 0.974 5.636 C 0.974 7.346 1.844 8.849 3.162 9.732 C 2.355 9.706 1.596 9.484 0.934 9.116 L 0.934 9.177 C 0.934 11.562 2.627 13.551 4.88 14.004 C 4.467 14.115 4.031 14.175 3.584 14.175 C 3.27 14.175 2.969 14.145 2.668 14.089 C 3.299 16.042 5.113 17.466 7.272 17.506 C 5.592 18.825 3.463 19.611 1.17 19.611 C 0.78 19.611 0.391 19.588 0 19.544 C 2.189 20.938 4.768 21.753 7.557 21.753 C 16.611 21.753 21.556 14.257 21.556 7.767 C 21.556 7.558 21.556 7.347 21.541 7.137 C 22.502 6.448 23.341 5.577 24.001 4.589 L 23.954 4.569 L 23.954 4.569 L 23.954 4.569 Z " fill="rgb(67,160,71)"/></svg>