<?xml version="1.0" standalone="no"?><!-- Generator: Gravit.io --><svg xmlns="http://www.w3.org/2000/svg" xmlns:xlink="http://www.w3.org/1999/xlink" style="isolation:isolate" viewBox="0 0 24 24" width="24" height="24"><path d=" M 2.089 0 L 0.525 4.175 L 0.525 20.869 L 6.261 20.869 L 6.261 24 L 9.393 24 L 12.52 20.868 L 17.215 20.868 L 23.475 14.61 L 23.475 0 L 2.089 0 L 2.089 0 L 2.089 0 Z  M 4.175 2.085 L 21.39 2.085 L 21.39 13.564 L 17.738 17.216 L 12 17.216 L 8.873 20.343 L 8.873 17.216 L 4.175 17.216 L 4.175 2.085 L 4.175 2.085 L 4.175 2.085 Z " fill="rgb(66,66,66)"/><path d=" M 9.915 12.522 L 12 12.522 L 12 6.262 L 9.915 6.262 L 9.915 12.522 L 9.915 12.522 L 9.915 12.522 Z  M 15.65 12.522 L 17.736 12.522 L 17.736 6.262 L 15.65 6.262 L 15.65 12.522 L 15.65 12.522 L 15.65 12.522 Z " fill="rgb(66,66,66)"/></svg>
